# xmcd
#
# Track frame offsets:
# 150
# 5373
# 22224
# 46054
# 66275
# 85208
# 108793
# 138423
# 167775
# 192677
# 220062
#
# Disc length: 3286 seconds
#
#
# Revision: 0
# Processed by: cddbd v1.5.1PL2 Copyright (c) Steve Scherf et al.
# Submitted via: FreeRIP 2.941 
#
DISCID=960cd40b
DTITLE=Pr. Achilla - Jesus é o Cristo
DYEAR=1900
DGENRE=Gospel
TTITLE0=Abertura
TTITLE1=Leão de Judá
TTITLE2=Cântico Novo
TTITLE3=Eu te Amarei
TTITLE4=Venceste a Morte
TTITLE5=Eu te Buscarei
TTITLE6=Orvalho de Vida
TTITLE7=Jesus é o Cristo
TTITLE8=Coração de Criança
TTITLE9=Tu és meu Deus
TTITLE10=Nada Sou
EXTD=
EXTT0=
EXTT1=
EXTT2=
EXTT3=
EXTT4=
EXTT5=
EXTT6=
EXTT7=
EXTT8=
EXTT9=
EXTT10=
PLAYORDER=
